<?xml version="1.0" encoding="utf-8"?>
<!-- Generator: Adobe Illustrator 16.0.0, SVG Export Plug-In . SVG Version: 6.00 Build 0)  -->
<!DOCTYPE svg PUBLIC "-//W3C//DTD SVG 1.1//EN" "http://www.w3.org/Graphics/SVG/1.1/DTD/svg11.dtd">
<svg version="1.1" id="Layer_1" xmlns="http://www.w3.org/2000/svg" xmlns:xlink="http://www.w3.org/1999/xlink" x="0px" y="0px"
	 width="4000px" height="4000px" viewBox="0 0 4000 4000" enable-background="new 0 0 4000 4000" xml:space="preserve">
<g display="none">
	<g display="inline">
		<rect x="-19.785" y="41.409" fill="#FFFFFF" width="3999" height="3999"/>
		<path d="M3978.715,41.909v3998h-3998v-3998H3978.715 M3979.715,40.909h-4000v4000h4000V40.909L3979.715,40.909z"/>
	</g>
</g>
<defs>
	<filter id="Adobe_OpacityMaskFilter" filterUnits="userSpaceOnUse" x="2082.509" y="1030.653" width="300.227" height="215.736">
		<feColorMatrix  type="matrix" values="1 0 0 0 0  0 1 0 0 0  0 0 1 0 0  0 0 0 1 0"/>
	</filter>
</defs>
<mask maskUnits="userSpaceOnUse" x="2082.509" y="1030.653" width="300.227" height="215.736" id="SVGID_1_">
	<g filter="url(#Adobe_OpacityMaskFilter)">
		
			<linearGradient id="SVGID_2_" gradientUnits="userSpaceOnUse" x1="-153.147" y1="1983.7832" x2="-292.9682" y2="2378.3591" gradientTransform="matrix(1 0 0 1 2518.3682 -1219.4575)">
			<stop  offset="0" style="stop-color:#FFFFFF"/>
			<stop  offset="1" style="stop-color:#000000"/>
		</linearGradient>
		<rect x="2082.508" y="1030.653" fill="url(#SVGID_2_)" width="300.228" height="215.736"/>
	</g>
</mask>
<path display="none" mask="url(#SVGID_1_)" fill-rule="evenodd" clip-rule="evenodd" fill="#FFE6C7" d="M2083.165,1246.39
	c38.053-103.411,161.861-275.686,283.437-164.809c5.172,4.72,10.769,10.108,16.134,15.615v-0.001c0,0-107.913-202.222-299.12,98.392
	l-0.002,0.001C2082.286,1212.425,2082.178,1229.37,2083.165,1246.39"/>
<g>
	<g>
		<defs>
			<path id="SVGID_3_" d="M2852.696,1777.91c0-546.46-316.91-1018.902-776.968-1243.567
				c-460.06,224.665-776.97,697.107-776.97,1243.567c0,481.107,245.667,904.804,618.375,1152.589l-0.015,0.047l157.258,307.615
				v-217.357c0.453,0.221,0.898,0.453,1.352,0.674C2535.786,2796.813,2852.696,2324.372,2852.696,1777.91"/>
		</defs>
		<clipPath id="SVGID_4_">
			<use xlink:href="#SVGID_3_"  overflow="visible"/>
		</clipPath>
		<linearGradient id="SVGID_5_" gradientUnits="userSpaceOnUse" x1="2100.9775" y1="2802.0557" x2="2023.7974" y2="2.7251">
			<stop  offset="0" style="stop-color:#008A80"/>
			<stop  offset="1" style="stop-color:#EBF855"/>
		</linearGradient>
		<rect x="1298.759" y="534.342" clip-path="url(#SVGID_4_)" fill="url(#SVGID_5_)" width="1553.938" height="2703.819"/>
	</g>
	<g>
		<defs>
			<polygon id="SVGID_6_" points="2812.854,1924.115 1966.87,1924.115 1966.87,1020.217 1228.393,2337.228 2074.377,2337.228 
				2074.377,3238.161 			"/>
		</defs>
		<clipPath id="SVGID_7_">
			<use xlink:href="#SVGID_6_"  overflow="visible"/>
		</clipPath>
		<linearGradient id="SVGID_8_" gradientUnits="userSpaceOnUse" x1="1874.5254" y1="3328.7988" x2="2083.9055" y2="1609.571">
			<stop  offset="0" style="stop-color:#CFCFCF"/>
			<stop  offset="1" style="stop-color:#FDFDFD"/>
		</linearGradient>
		<rect x="1228.393" y="1020.217" clip-path="url(#SVGID_7_)" fill="url(#SVGID_8_)" width="1584.461" height="2217.944"/>
	</g>
	<defs>
		
			<filter id="Adobe_OpacityMaskFilter_1_" filterUnits="userSpaceOnUse" x="1416.532" y="2337.227" width="657.845" height="900.934">
			<feColorMatrix  type="matrix" values="1 0 0 0 0  0 1 0 0 0  0 0 1 0 0  0 0 0 1 0"/>
		</filter>
	</defs>
	<mask maskUnits="userSpaceOnUse" x="1416.532" y="2337.227" width="657.845" height="900.934" id="SVGID_9_">
		<g filter="url(#Adobe_OpacityMaskFilter_1_)">
			
				<linearGradient id="SVGID_10_" gradientUnits="userSpaceOnUse" x1="-567.665" y1="2710.6172" x2="-1493.4005" y2="3781.4968" gradientTransform="matrix(1 0 0 1 3058.8098 -785.5264)">
				<stop  offset="0" style="stop-color:#FFFFFF"/>
				<stop  offset="1" style="stop-color:#000000"/>
			</linearGradient>
			<rect x="1416.532" y="2337.228" fill="url(#SVGID_10_)" width="657.845" height="900.934"/>
		</g>
	</mask>
	<path mask="url(#SVGID_9_)" fill-rule="evenodd" clip-rule="evenodd" fill="#005B50" d="M1917.119,2470.44l0.012,460.059v0.07
		l157.246,307.592v-217.357v-683.576h-657.845c20.262,45.762,42.933,90.219,67.851,133.213H1917.119z"/>
	<defs>
		
			<filter id="Adobe_OpacityMaskFilter_2_" filterUnits="userSpaceOnUse" x="1298.759" y="534.342" width="1553.938" height="1328.979">
			<feColorMatrix  type="matrix" values="1 0 0 0 0  0 1 0 0 0  0 0 1 0 0  0 0 0 1 0"/>
		</filter>
	</defs>
	<mask maskUnits="userSpaceOnUse" x="1298.759" y="534.342" width="1553.938" height="1328.979" id="SVGID_11_">
		<g filter="url(#Adobe_OpacityMaskFilter_2_)">
			
				<linearGradient id="SVGID_12_" gradientUnits="userSpaceOnUse" x1="-959.0654" y1="1261.6304" x2="-959.0655" y2="2804.5212" gradientTransform="matrix(1 0 0 1 3034.7922 -1065.9038)">
				<stop  offset="0" style="stop-color:#FFFFFF"/>
				<stop  offset="1" style="stop-color:#000000"/>
			</linearGradient>
			<rect x="1298.759" y="534.342" fill="url(#SVGID_12_)" width="1553.937" height="1328.979"/>
		</g>
	</mask>
	<path mask="url(#SVGID_11_)" fill-rule="evenodd" clip-rule="evenodd" fill="#EBF855" d="M1301.354,1863.32
		c31.068-509.962,338.463-945.282,774.374-1158.155c435.911,212.873,743.307,648.194,774.373,1158.156
		c1.721-28.25,2.595-56.728,2.595-85.411c0-546.46-316.91-1018.902-776.968-1243.567
		c-460.06,224.665-776.97,697.107-776.97,1243.567C1298.759,1806.592,1299.633,1835.07,1301.354,1863.32"/>
	<defs>
		
			<filter id="Adobe_OpacityMaskFilter_3_" filterUnits="userSpaceOnUse" x="1228.393" y="1020.217" width="1122.866" height="2217.943">
			<feColorMatrix  type="matrix" values="1 0 0 0 0  0 1 0 0 0  0 0 1 0 0  0 0 0 1 0"/>
		</filter>
	</defs>
	<mask maskUnits="userSpaceOnUse" x="1228.393" y="1020.217" width="1122.866" height="2217.943" id="SVGID_13_">
		<g filter="url(#Adobe_OpacityMaskFilter_3_)">
			
				<linearGradient id="SVGID_14_" gradientUnits="userSpaceOnUse" x1="-1152.1167" y1="4313.083" x2="-1269.0668" y2="2229.7668" gradientTransform="matrix(1 0 0 1 3020.4419 -785.5264)">
				<stop  offset="0" style="stop-color:#FFFFFF"/>
				<stop  offset="1" style="stop-color:#000000"/>
			</linearGradient>
			<rect x="1228.393" y="1020.218" fill="url(#SVGID_14_)" width="1122.866" height="2217.943"/>
		</g>
	</mask>
	<polygon mask="url(#SVGID_13_)" fill-rule="evenodd" clip-rule="evenodd" fill="#C4D4D5" points="2136.923,2989.675 
		2351.259,2138.149 1685.478,2138.149 1966.87,1020.217 1344.174,2130.741 1340.021,2138.149 1228.393,2337.228 1416.532,2337.228 
		2074.377,2337.228 2074.377,3020.804 2074.377,3238.161 	"/>
</g>
</svg>
